<mxfile host="app.diagrams.net" modified="2021-07-01T20:39:27.995Z" agent="5.0 (Windows NT 6.1; Win64; x64) AppleWebKit/537.36 (KHTML, like Gecko) Chrome/91.0.4472.124 Safari/537.36" etag="W7FoPPjj8wQhsPIXYbZC" version="14.8.3" type="github">
  <diagram id="mU_eJf62R2tOr7Z7F0Z9" name="Page-1">
    <mxGraphModel dx="1332" dy="520" grid="1" gridSize="10" guides="1" tooltips="1" connect="1" arrows="1" fold="1" page="1" pageScale="1" pageWidth="827" pageHeight="1169" math="0" shadow="0">
      <root>
        <mxCell id="0" />
        <mxCell id="1" parent="0" />
        <mxCell id="GatDSl3ldlhSZ0CEQ1Gw-1" value="Proyecto" style="swimlane;fontStyle=1;align=center;verticalAlign=top;childLayout=stackLayout;horizontal=1;startSize=26;horizontalStack=0;resizeParent=1;resizeParentMax=0;resizeLast=0;collapsible=1;marginBottom=0;" vertex="1" parent="1">
          <mxGeometry x="370" y="110" width="180" height="190" as="geometry" />
        </mxCell>
        <mxCell id="GatDSl3ldlhSZ0CEQ1Gw-2" value="- fechaInicialPlan: Date" style="text;strokeColor=none;fillColor=none;align=left;verticalAlign=top;spacingLeft=4;spacingRight=4;overflow=hidden;rotatable=0;points=[[0,0.5],[1,0.5]];portConstraint=eastwest;" vertex="1" parent="GatDSl3ldlhSZ0CEQ1Gw-1">
          <mxGeometry y="26" width="180" height="26" as="geometry" />
        </mxCell>
        <mxCell id="GatDSl3ldlhSZ0CEQ1Gw-19" value="- fechaFinalPlan: Date" style="text;strokeColor=none;fillColor=none;align=left;verticalAlign=top;spacingLeft=4;spacingRight=4;overflow=hidden;rotatable=0;points=[[0,0.5],[1,0.5]];portConstraint=eastwest;" vertex="1" parent="GatDSl3ldlhSZ0CEQ1Gw-1">
          <mxGeometry y="52" width="180" height="26" as="geometry" />
        </mxCell>
        <mxCell id="GatDSl3ldlhSZ0CEQ1Gw-20" value="- fechaInicialReal: Date" style="text;strokeColor=none;fillColor=none;align=left;verticalAlign=top;spacingLeft=4;spacingRight=4;overflow=hidden;rotatable=0;points=[[0,0.5],[1,0.5]];portConstraint=eastwest;" vertex="1" parent="GatDSl3ldlhSZ0CEQ1Gw-1">
          <mxGeometry y="78" width="180" height="26" as="geometry" />
        </mxCell>
        <mxCell id="GatDSl3ldlhSZ0CEQ1Gw-22" value="- fechaFinalReal: Date" style="text;strokeColor=none;fillColor=none;align=left;verticalAlign=top;spacingLeft=4;spacingRight=4;overflow=hidden;rotatable=0;points=[[0,0.5],[1,0.5]];portConstraint=eastwest;" vertex="1" parent="GatDSl3ldlhSZ0CEQ1Gw-1">
          <mxGeometry y="104" width="180" height="26" as="geometry" />
        </mxCell>
        <mxCell id="GatDSl3ldlhSZ0CEQ1Gw-21" value="- status: String" style="text;strokeColor=none;fillColor=none;align=left;verticalAlign=top;spacingLeft=4;spacingRight=4;overflow=hidden;rotatable=0;points=[[0,0.5],[1,0.5]];portConstraint=eastwest;" vertex="1" parent="GatDSl3ldlhSZ0CEQ1Gw-1">
          <mxGeometry y="130" width="180" height="26" as="geometry" />
        </mxCell>
        <mxCell id="GatDSl3ldlhSZ0CEQ1Gw-3" value="" style="line;strokeWidth=1;fillColor=none;align=left;verticalAlign=middle;spacingTop=-1;spacingLeft=3;spacingRight=3;rotatable=0;labelPosition=right;points=[];portConstraint=eastwest;" vertex="1" parent="GatDSl3ldlhSZ0CEQ1Gw-1">
          <mxGeometry y="156" width="180" height="8" as="geometry" />
        </mxCell>
        <mxCell id="GatDSl3ldlhSZ0CEQ1Gw-4" value="+ finalizoEnFecha(): boolean" style="text;strokeColor=none;fillColor=none;align=left;verticalAlign=top;spacingLeft=4;spacingRight=4;overflow=hidden;rotatable=0;points=[[0,0.5],[1,0.5]];portConstraint=eastwest;" vertex="1" parent="GatDSl3ldlhSZ0CEQ1Gw-1">
          <mxGeometry y="164" width="180" height="26" as="geometry" />
        </mxCell>
        <mxCell id="GatDSl3ldlhSZ0CEQ1Gw-34" style="edgeStyle=elbowEdgeStyle;rounded=0;jumpSize=6;orthogonalLoop=1;jettySize=auto;elbow=vertical;html=1;startArrow=none;startFill=0;endArrow=block;endFill=0;strokeColor=#000000;strokeWidth=1;" edge="1" parent="1" source="GatDSl3ldlhSZ0CEQ1Gw-5" target="GatDSl3ldlhSZ0CEQ1Gw-1">
          <mxGeometry relative="1" as="geometry" />
        </mxCell>
        <mxCell id="GatDSl3ldlhSZ0CEQ1Gw-5" value="ProyectoTradicional" style="swimlane;fontStyle=1;align=center;verticalAlign=top;childLayout=stackLayout;horizontal=1;startSize=26;horizontalStack=0;resizeParent=1;resizeParentMax=0;resizeLast=0;collapsible=1;marginBottom=0;" vertex="1" parent="1">
          <mxGeometry x="280" y="410" width="160" height="86" as="geometry" />
        </mxCell>
        <mxCell id="GatDSl3ldlhSZ0CEQ1Gw-6" value="- faseActual: String" style="text;strokeColor=none;fillColor=none;align=left;verticalAlign=top;spacingLeft=4;spacingRight=4;overflow=hidden;rotatable=0;points=[[0,0.5],[1,0.5]];portConstraint=eastwest;" vertex="1" parent="GatDSl3ldlhSZ0CEQ1Gw-5">
          <mxGeometry y="26" width="160" height="26" as="geometry" />
        </mxCell>
        <mxCell id="GatDSl3ldlhSZ0CEQ1Gw-7" value="" style="line;strokeWidth=1;fillColor=none;align=left;verticalAlign=middle;spacingTop=-1;spacingLeft=3;spacingRight=3;rotatable=0;labelPosition=right;points=[];portConstraint=eastwest;" vertex="1" parent="GatDSl3ldlhSZ0CEQ1Gw-5">
          <mxGeometry y="52" width="160" height="8" as="geometry" />
        </mxCell>
        <mxCell id="GatDSl3ldlhSZ0CEQ1Gw-8" value="+ esFaseDiseño(): boolean" style="text;strokeColor=none;fillColor=none;align=left;verticalAlign=top;spacingLeft=4;spacingRight=4;overflow=hidden;rotatable=0;points=[[0,0.5],[1,0.5]];portConstraint=eastwest;" vertex="1" parent="GatDSl3ldlhSZ0CEQ1Gw-5">
          <mxGeometry y="60" width="160" height="26" as="geometry" />
        </mxCell>
        <mxCell id="GatDSl3ldlhSZ0CEQ1Gw-32" style="edgeStyle=elbowEdgeStyle;rounded=0;jumpSize=6;orthogonalLoop=1;jettySize=auto;elbow=vertical;html=1;startArrow=none;startFill=0;endArrow=block;endFill=0;strokeColor=#000000;strokeWidth=1;" edge="1" parent="1" source="GatDSl3ldlhSZ0CEQ1Gw-9" target="GatDSl3ldlhSZ0CEQ1Gw-1">
          <mxGeometry relative="1" as="geometry" />
        </mxCell>
        <mxCell id="GatDSl3ldlhSZ0CEQ1Gw-35" style="rounded=0;jumpSize=6;orthogonalLoop=1;jettySize=auto;elbow=vertical;html=1;startArrow=none;startFill=0;endArrow=block;endFill=0;strokeColor=#000000;strokeWidth=1;dashed=1;" edge="1" parent="1" source="GatDSl3ldlhSZ0CEQ1Gw-9" target="GatDSl3ldlhSZ0CEQ1Gw-13">
          <mxGeometry relative="1" as="geometry">
            <mxPoint x="723.5539215686274" y="300" as="targetPoint" />
          </mxGeometry>
        </mxCell>
        <mxCell id="GatDSl3ldlhSZ0CEQ1Gw-9" value="ProyectoAgil" style="swimlane;fontStyle=1;align=center;verticalAlign=top;childLayout=stackLayout;horizontal=1;startSize=26;horizontalStack=0;resizeParent=1;resizeParentMax=0;resizeLast=0;collapsible=1;marginBottom=0;" vertex="1" parent="1">
          <mxGeometry x="470" y="410" width="160" height="138" as="geometry" />
        </mxCell>
        <mxCell id="GatDSl3ldlhSZ0CEQ1Gw-10" value="- cantSprints: int" style="text;strokeColor=none;fillColor=none;align=left;verticalAlign=top;spacingLeft=4;spacingRight=4;overflow=hidden;rotatable=0;points=[[0,0.5],[1,0.5]];portConstraint=eastwest;" vertex="1" parent="GatDSl3ldlhSZ0CEQ1Gw-9">
          <mxGeometry y="26" width="160" height="26" as="geometry" />
        </mxCell>
        <mxCell id="GatDSl3ldlhSZ0CEQ1Gw-23" value="- numSprintActual: int" style="text;strokeColor=none;fillColor=none;align=left;verticalAlign=top;spacingLeft=4;spacingRight=4;overflow=hidden;rotatable=0;points=[[0,0.5],[1,0.5]];portConstraint=eastwest;" vertex="1" parent="GatDSl3ldlhSZ0CEQ1Gw-9">
          <mxGeometry y="52" width="160" height="26" as="geometry" />
        </mxCell>
        <mxCell id="GatDSl3ldlhSZ0CEQ1Gw-24" value="- tipoEstimacion: String" style="text;strokeColor=none;fillColor=none;align=left;verticalAlign=top;spacingLeft=4;spacingRight=4;overflow=hidden;rotatable=0;points=[[0,0.5],[1,0.5]];portConstraint=eastwest;" vertex="1" parent="GatDSl3ldlhSZ0CEQ1Gw-9">
          <mxGeometry y="78" width="160" height="26" as="geometry" />
        </mxCell>
        <mxCell id="GatDSl3ldlhSZ0CEQ1Gw-11" value="" style="line;strokeWidth=1;fillColor=none;align=left;verticalAlign=middle;spacingTop=-1;spacingLeft=3;spacingRight=3;rotatable=0;labelPosition=right;points=[];portConstraint=eastwest;" vertex="1" parent="GatDSl3ldlhSZ0CEQ1Gw-9">
          <mxGeometry y="104" width="160" height="8" as="geometry" />
        </mxCell>
        <mxCell id="GatDSl3ldlhSZ0CEQ1Gw-12" value="+ compareTo(Object): int" style="text;strokeColor=none;fillColor=none;align=left;verticalAlign=top;spacingLeft=4;spacingRight=4;overflow=hidden;rotatable=0;points=[[0,0.5],[1,0.5]];portConstraint=eastwest;" vertex="1" parent="GatDSl3ldlhSZ0CEQ1Gw-9">
          <mxGeometry y="112" width="160" height="26" as="geometry" />
        </mxCell>
        <mxCell id="GatDSl3ldlhSZ0CEQ1Gw-13" value="«interface»&lt;br&gt;&lt;b&gt;Comparable&lt;/b&gt;" style="html=1;" vertex="1" parent="1">
          <mxGeometry x="600" y="270" width="110" height="50" as="geometry" />
        </mxCell>
        <mxCell id="GatDSl3ldlhSZ0CEQ1Gw-14" value="ProjectManager" style="swimlane;fontStyle=0;childLayout=stackLayout;horizontal=1;startSize=26;fillColor=none;horizontalStack=0;resizeParent=1;resizeParentMax=0;resizeLast=0;collapsible=1;marginBottom=0;" vertex="1" parent="1">
          <mxGeometry x="80" y="119" width="230" height="164" as="geometry" />
        </mxCell>
        <mxCell id="GatDSl3ldlhSZ0CEQ1Gw-15" value="- nombre: String" style="text;strokeColor=none;fillColor=none;align=left;verticalAlign=top;spacingLeft=4;spacingRight=4;overflow=hidden;rotatable=0;points=[[0,0.5],[1,0.5]];portConstraint=eastwest;" vertex="1" parent="GatDSl3ldlhSZ0CEQ1Gw-14">
          <mxGeometry y="26" width="230" height="26" as="geometry" />
        </mxCell>
        <mxCell id="GatDSl3ldlhSZ0CEQ1Gw-16" value="- apellido: String" style="text;strokeColor=none;fillColor=none;align=left;verticalAlign=top;spacingLeft=4;spacingRight=4;overflow=hidden;rotatable=0;points=[[0,0.5],[1,0.5]];portConstraint=eastwest;" vertex="1" parent="GatDSl3ldlhSZ0CEQ1Gw-14">
          <mxGeometry y="52" width="230" height="26" as="geometry" />
        </mxCell>
        <mxCell id="GatDSl3ldlhSZ0CEQ1Gw-18" value="- dni: int" style="text;strokeColor=none;fillColor=none;align=left;verticalAlign=top;spacingLeft=4;spacingRight=4;overflow=hidden;rotatable=0;points=[[0,0.5],[1,0.5]];portConstraint=eastwest;" vertex="1" parent="GatDSl3ldlhSZ0CEQ1Gw-14">
          <mxGeometry y="78" width="230" height="26" as="geometry" />
        </mxCell>
        <mxCell id="GatDSl3ldlhSZ0CEQ1Gw-17" value="- legajo: int" style="text;strokeColor=none;fillColor=none;align=left;verticalAlign=top;spacingLeft=4;spacingRight=4;overflow=hidden;rotatable=0;points=[[0,0.5],[1,0.5]];portConstraint=eastwest;" vertex="1" parent="GatDSl3ldlhSZ0CEQ1Gw-14">
          <mxGeometry y="104" width="230" height="26" as="geometry" />
        </mxCell>
        <mxCell id="GatDSl3ldlhSZ0CEQ1Gw-38" value="" style="line;strokeWidth=1;fillColor=none;align=left;verticalAlign=middle;spacingTop=-1;spacingLeft=3;spacingRight=3;rotatable=0;labelPosition=right;points=[];portConstraint=eastwest;" vertex="1" parent="GatDSl3ldlhSZ0CEQ1Gw-14">
          <mxGeometry y="130" width="230" height="8" as="geometry" />
        </mxCell>
        <mxCell id="GatDSl3ldlhSZ0CEQ1Gw-37" value="+ ProjectManager(String, String, int, int)" style="text;strokeColor=none;fillColor=none;align=left;verticalAlign=top;spacingLeft=4;spacingRight=4;overflow=hidden;rotatable=0;points=[[0,0.5],[1,0.5]];portConstraint=eastwest;" vertex="1" parent="GatDSl3ldlhSZ0CEQ1Gw-14">
          <mxGeometry y="138" width="230" height="26" as="geometry" />
        </mxCell>
        <mxCell id="GatDSl3ldlhSZ0CEQ1Gw-36" style="edgeStyle=none;rounded=0;jumpSize=6;orthogonalLoop=1;jettySize=auto;html=1;startArrow=none;startFill=0;endArrow=classic;endFill=1;strokeColor=#000000;strokeWidth=1;" edge="1" parent="1" source="GatDSl3ldlhSZ0CEQ1Gw-20" target="GatDSl3ldlhSZ0CEQ1Gw-14">
          <mxGeometry relative="1" as="geometry" />
        </mxCell>
      </root>
    </mxGraphModel>
  </diagram>
</mxfile>
